<?xml version="1.0" encoding="utf-8"?>
<!-- Generator: Adobe Illustrator 27.5.0, SVG Export Plug-In . SVG Version: 6.00 Build 0)  -->
<svg version="1.1" id="Capa_1" xmlns="http://www.w3.org/2000/svg" xmlns:xlink="http://www.w3.org/1999/xlink" x="0px" y="0px"
	 viewBox="0 0 2279 1975" style="enable-background:new 0 0 2279 1975;" xml:space="preserve">
<g>
	<path style="fill:#D45556;" d="M1735.508,1195.978c0.429,0.641,0.9,1.277,1.345,1.954c24.969,37.967,41.941,81.064,50.09,125.752
		c4.63-6.974,9.444-13.801,14.413-20.379c10.833-14.345,22.86-28.561,37.039-39.527c-0.197-1.598-0.3-3.207-0.3-4.81
		c0-1.316,0.052-2.63,0.141-3.93c2.062-30.302,21.677-58.722,49.273-71.397c10.949-5.024,22.959-7.477,34.976-7.477
		c7.95,0,15.905,1.073,23.556,3.188c8.902,2.462,16.868,6.597,24.461,11.367c0.097,0.061,0.191,0.128,0.288,0.19
		c-0.317-5.651-0.89-11.272-1.611-16.881c9.555-1.226,19.065-2.832,28.474-5.086c10.728-2.575,21.258-5.895,31.756-9.208
		c13.974-4.411,27.947-8.821,41.92-13.235c4.517-1.429,7.484-2.486,10.671-2.481c1.915,0,3.946,0.371,6.511,1.308
		c4.129,1.484,8.221,4.893,13.209,4.922c0.77,0,1.554-0.084,2.365-0.275c4.6-1.099,7.709-5.589,8.117-10.182l0.047-1.193
		c-0.005-4.15-1.826-8.13-4.344-11.349c-3.318-4.187-8.18-6.388-11.252-10.015c-2.784-3.244-4.511-7.975-7.311-11.812
		c-8.959-12.191-18.322-24.657-31.165-32.952c-26.319-16.967-60.096-12.702-90.675-16.862c-15.266-2.062-30.224-6.359-44.26-12.699
		c-17.825-8.051-34.938-18.464-55.04-20.44c-2.842-0.277-5.699-0.416-8.562-0.416c-17.098,0-34.237,4.948-48.362,14.667
		c-22.734,15.641-36.749,42.959-36.755,70.482c-0.005,2.766,0.136,5.537,0.435,8.297c0.301,2.898,0.806,5.804,1.656,8.613
		c-12.088,13.23-21.516,29.272-29.728,45.258c-4.274,8.315-8.319,16.893-12.062,25.626
		C1735.047,1195.328,1735.287,1195.647,1735.508,1195.978z"/>
	<path style="fill:#D45556;" d="M637.006,1508.694c1.199,3.983,2.46,8.086,5.129,11.273c2.266,2.705,5.375,4.542,8.389,6.377
		c5.045,3.07,14.942,8.714,24.639,15.208c56.568-26.777,114.424-42.211,174.222-52.963c3.932-12.907,8.049-25.739,12.507-38.431
		l-0.465-0.378c-2.099-8.204-4.066-16.444-5.783-24.734c-5.11-24.737-8.403-49.775-10.561-74.911
		c-3.177,1.016-6.42,1.916-9.766,2.624c-6.997,1.483-13.979,2.195-20.85,2.195c-15.269,0-30.017-3.51-43.34-9.837
		c-33.294,6.016-66.817,8.934-100.235,8.934c-34.834,0-69.564-3.166-103.806-9.292c-37.03-6.625-73.49-16.691-108.898-29.974
		l-0.005,0.002l-0.011-0.005l-0.054-0.021c62.044,32.488,139.603,54.042,232.959,54.042c31.199,0,64.174-2.421,98.918-7.63
		c0.134,8.545,0.487,17.1,0.994,25.581c1.41,23.67,3.84,47.345,7.042,70.969c-55.464,9.984-109.283,24.005-161.965,47.38
		c0.055,0.213,0.104,0.45,0.159,0.66C636.483,1506.75,636.729,1507.776,637.006,1508.694z"/>
	<path style="fill:#D45556;" d="M461.157,1545.222c4.103-6.879,14-6.558,21.923-5.367c20.568,3.091,41.14,6.181,61.708,9.274
		c-18.809-14.667-37.613-29.334-56.422-43.998c-1.465-1.144-2.962-2.324-3.909-3.92c-2.973-5.017,1.173-11.841,6.693-13.722
		c5.516-1.882,11.561-0.293,17.114,1.497c21.714,7.008,42.333,17.053,62.378,27.963c7.159,3.896,15.465,8.025,23.1,5.16
		c-0.869-11.085-1.69-20.756-0.806-30.538c0.026-0.294,0.052-0.588,0.073-0.882c-0.48-0.449-0.957-0.9-1.377-1.402
		c-2.559-3.046-3.804-7.05-4.998-11.035c-3.883-12.838-5.621-33.115-13.701-44.155c-2.491-3.383-6.06-6.371-10.415-6.848
		l-1.214-0.065c-7.788,0.06-13.241,7.911-15.884,15.049c-1.994,5.416-3.208,10.564-3.889,15.627
		c-0.539,3.985-0.743,7.923-0.743,11.904c0,6.886,0.621,13.926,1.22,21.597c-1.544,0.519-3.109,0.784-4.705,0.784
		c-5.788,0.01-11.885-3.046-17.36-6.037c-20.06-10.917-40.717-20.981-62.493-28.01c-3.8-1.224-7.866-2.373-11.912-2.376
		c-1.895,0-3.789,0.253-5.631,0.884c-4.511,1.559-8.107,6.094-8.133,10.684c0,1.371,0.335,2.75,1.089,4.014
		c1.031,1.737,2.606,2.959,4.066,4.103c18.138,14.144,36.276,28.287,54.413,42.428c-19.73-2.964-39.456-5.928-59.187-8.892
		c-2.538-0.382-5.28-0.677-7.997-0.677c-5.804-0.003-11.602,1.355-14.601,6.364c-1.073,1.8-1.549,3.81-1.543,5.835
		c0,3.951,1.768,7.968,4.469,10.904c4.051,4.399,9.656,6.793,14.989,9.052c10.75,4.542,21.499,9.085,32.254,13.63l0.419-0.061
		c-0.046-0.187-0.118-0.369-0.157-0.557C459.409,1550.609,459.681,1547.7,461.157,1545.222z"/>
	<path style="fill:#D45556;" d="M520.886,1645.142c2.177-0.673,4.741-1.719,5.108-3.969c1.235-7.662-29.166-10.47-33.709-11.126
		c-9.321-1.348-24.352,0.309-32.417-5.304c-1.743-1.214-3.182-2.928-4.323-4.883c-0.112-0.193-0.199-0.404-0.306-0.602
		c-7.497,2.841-14.871,6.008-22.051,9.577c-1.889,0.948-3.957,2.007-5.286,3.918c-0.921,1.332-1.314,2.878-1.314,4.43
		c0.005,2.363,0.874,4.763,2.198,6.707c4.155,6.105,11.833,8.839,19.076,8.842h0.214c7.306-0.06,14.277-2.473,21.033-4.82
		c7.636-2.661,15.277-5.32,22.912-7.979c1.424-0.5,2.836-0.97,4.187-0.966l0.528,0.024c5.972,0.546,13.774,4.638,20.484,7.375
		c0.32-0.105,0.636-0.224,0.958-0.327C519.086,1645.746,519.981,1645.421,520.886,1645.142z"/>
	<path style="fill:#D45556;" d="M478.563,1594.774c9.603,0.246,19.201,0.492,28.8,0.735c7.238,0.186,15.219,0.118,20.683-4.626
		c-16.433-6.945-32.861-13.887-49.294-20.832c-3.658-1.547-7.364-3.192-10.619-5.422c-0.265-0.182-0.513-0.387-0.773-0.575
		c-2.534,0.428-5.19,0.583-7.836,0.583c-1.063,0-2.12-0.021-3.161-0.047c-9.598-0.246-19.202-0.489-28.8-0.735
		c-0.858-0.021-1.758-0.036-2.685-0.036c-7.714,0.016-17.522,1.002-21.823,8.481c-1.293,2.276-1.879,4.914-1.879,7.596
		c0.01,5.854,2.748,11.961,7.295,15.145c8.436,5.806,23.519,4.054,32.704,5.417c1.818,0.265,7.579,0.863,13.843,1.947l0.455-0.602
		C460.398,1594.995,470.985,1594.581,478.563,1594.774z"/>
	<path style="fill:#9DCBEF;" d="M1181.607,1688.768c81.475-96.832,120.846-224.521,120.846-352.08
		c0-39.272-3.732-78.531-11.116-116.872c-9.666-22.257-21.359-43.588-35.19-63.534c-0.186-0.268-0.38-0.529-0.566-0.797
		c-45.418,11.878-91.519,21.109-138.005,27.593c-0.382,0.452-0.731,0.912-1.115,1.363c-29.478,34.744-66.743,67.677-112.901,96.347
		c36.698-10.851,76.852-11.143,102.834,10.808l0.736-0.243c3.302,1.337,6.62,3.064,9.949,5.307
		c10.488,7.084,19.911,16.238,28.213,26.739c24.91,31.502,39.739,75.126,42.993,111.323c0.45,5.098,0.681,10.247,0.681,15.413
		c0,3.141-0.085,6.291-0.254,9.439c-2.538,47.224-24.09,94.35-65.097,116.983c-3.797,2.094-7.778,3.966-11.88,5.489
		c-6.835,2.537-14.005,4.103-21.217,4.104c-2.381,0-4.767-0.173-7.144-0.536c-3.642-0.557-7.128-1.557-10.456-2.886l-0.015-0.014
		l-0.174,0.406c-13.309,30.111-29.443,60.533-52.465,81.237c-0.144,0.13-0.296,0.249-0.441,0.378l0.232,0.258
		c18.516,6.121,37.958,9.695,57.301,12.343c32.139,4.399,67.978,9.221,104.701,12.532l-0.555-0.414L1181.607,1688.768z"/>
	<path style="fill:#9DCBEF;" d="M855.426,1346.228c-3.096,1.371-6.269,2.601-9.546,3.67c-0.261,0.086-0.532,0.155-0.795,0.238
		c2.159,25.136,5.451,50.174,10.561,74.911c1.716,8.29,3.684,16.53,5.783,24.734l0.465,0.378c0.064-0.181,0.12-0.365,0.184-0.546
		c3.611-10.244,7.363-20.429,11.315-30.516c15.036-38.398,33.625-76.904,62.88-102.699
		C911.346,1327.556,884.452,1337.587,855.426,1346.228z"/>
	<path style="fill:#D45556;" d="M1307.85,1688.532c0.031-7.654,6.076-18.555,7.316-23.99c6.892-29.569,12.33-59.476,16.281-89.576
		c5.291-40.251,7.95-80.844,7.95-121.441c0-19-0.581-38.003-1.748-56.966c-2.721-44.207-15.371-83.312-27.847-125.734
		c-5.092-17.331-11.236-34.379-18.437-50.95c-0.008-0.02-0.018-0.039-0.026-0.058c7.384,38.34,11.116,77.6,11.116,116.872
		c0,127.558-39.371,255.248-120.846,352.08l-0.104,0.685l0.555,0.414c27.104,2.444,54.69,4.053,81.637,4.053
		c15.223,0,30.24-0.522,44.861-1.693c-0.069-0.169-0.191-0.307-0.246-0.483C1307.985,1690.751,1307.85,1689.671,1307.85,1688.532z"
		/>
	<path style="fill:#D45556;" d="M1131.994,1339.491c5.139,28.25-0.052,57.5-6.542,85.4
		c-12.607,54.206-30.166,106.967-52.287,157.214l-0.26,0.609l0.015,0.014c3.328,1.329,6.814,2.329,10.456,2.886
		c2.376,0.363,4.763,0.536,7.144,0.536c7.212-0.002,14.382-1.568,21.217-4.104c4.102-1.522,8.083-3.394,11.88-5.489
		c41.007-22.633,62.559-69.76,65.097-116.983c0.169-3.149,0.254-6.298,0.254-9.439c0-5.166-0.23-10.315-0.681-15.413
		c-3.254-36.197-18.083-79.821-42.993-111.323c-8.303-10.501-17.726-19.655-28.213-26.739c-3.329-2.242-6.646-3.969-9.949-5.307
		l-0.736,0.243c0.157,0.132,0.328,0.243,0.484,0.377C1119.052,1302.454,1128.058,1317.864,1131.994,1339.491z"/>
	<path style="fill:#EE7562;" d="M1072.73,1583.119l0.174-0.406l0.26-0.609c22.122-50.247,39.68-103.008,52.287-157.214
		c6.489-27.899,11.681-57.149,6.542-85.4c-3.936-21.627-12.942-37.037-25.115-47.517c-0.156-0.134-0.327-0.244-0.484-0.377
		c-25.981-21.951-66.135-21.659-102.834-10.808c-0.644,0.4-1.248,0.819-1.896,1.218c-19.568,12.04-40.738,23.302-63.582,33.612
		c-0.591,0.267-1.217,0.515-1.811,0.78c-29.255,25.795-47.844,64.301-62.88,102.699c-3.951,10.087-7.704,20.272-11.315,30.516
		c-0.064,0.181-0.121,0.365-0.184,0.546c-4.458,12.692-8.575,25.524-12.507,38.431c-59.798,10.752-117.654,26.186-174.222,52.963
		c-9.698-6.495-19.594-12.139-24.639-15.208c-3.015-1.834-6.123-3.672-8.389-6.377c-2.669-3.188-3.93-7.291-5.129-11.273
		c-0.277-0.918-0.523-1.944-0.78-2.93c-0.055-0.211-0.104-0.447-0.159-0.66c-3.28-12.861-5.414-30.522-12.652-40.36
		c-2.428-3.297-5.877-6.141-9.944-6.579c-7.85-0.845-13.68,7.139-16.401,14.547c-1.978,5.372-3.182,10.467-3.857,15.486
		c-0.113,0.833-0.15,1.662-0.204,2.491c-0.021,0.294-0.047,0.587-0.073,0.882c-0.884,9.781-0.063,19.453,0.806,30.538
		c-7.636,2.865-15.941-1.264-23.1-5.16c-20.045-10.91-40.664-20.955-62.378-27.963c-5.553-1.79-11.598-3.378-17.114-1.497
		c-5.521,1.882-9.666,8.706-6.693,13.722c0.947,1.596,2.444,2.776,3.909,3.92c18.809,14.664,37.613,29.331,56.422,43.998
		c-20.568-3.093-41.14-6.183-61.708-9.274c-7.923-1.191-17.82-1.512-21.923,5.367c-1.476,2.478-1.748,5.387-1.167,8.211
		c0.039,0.188,0.111,0.37,0.157,0.557c0.654,2.641,2.01,5.179,3.847,7.176c1.01,1.099,2.165,2.021,3.366,2.889
		c0.26,0.188,0.508,0.393,0.773,0.575c3.255,2.23,6.961,3.876,10.619,5.422c16.433,6.945,32.861,13.887,49.294,20.832
		c-5.464,4.744-13.445,4.812-20.683,4.626c-9.598-0.243-19.196-0.489-28.8-0.735c-7.578-0.193-18.165,0.22-23.09,7.029l-0.455,0.602
		l-0.361,0.476c-2.719,4.776-2.125,11.331,0.584,16.376c0.107,0.198,0.194,0.409,0.306,0.602c1.141,1.955,2.58,3.669,4.323,4.883
		c8.065,5.613,23.096,3.957,32.417,5.304c4.542,0.656,34.944,3.465,33.709,11.126c-0.367,2.25-2.931,3.297-5.108,3.969
		c-0.906,0.28-1.801,0.604-2.706,0.895c-0.322,0.103-0.637,0.222-0.958,0.327c-11.205,3.652-22.163,8.071-32.72,13.321
		c-1.884,0.937-3.836,1.965-5.034,3.7c-2.094,3.038-1.183,7.322,0.89,10.375c4.019,5.919,11.587,8.604,18.741,8.549
		c7.149-0.055,14.052-2.434,20.809-4.783c7.636-2.658,15.276-5.319,22.912-7.978c1.617-0.563,3.297-1.133,5.003-0.974
		c7.416,0.693,17.182,6.508,24.488,8.842c14.208,4.537,38.351,10.501,57.416,8.109c9.855,2.394,19.474,3.682,25.686,4.765
		c92.203,16.077,186.207,17.092,278.646,3.116c23.085-0.584,46.348-3.624,66.889-15.07c6.792-3.784,13.039-8.401,18.876-13.603
		c0.145-0.129,0.297-0.248,0.441-0.378C1043.287,1643.652,1059.422,1613.23,1072.73,1583.119z M958.598,1570.423l-0.806-0.207
		c-1.643-2.159-3.302-4.317-4.966-6.466c-13.288-17.129-27.392-33.777-44.186-47.452c-9.19-7.481-19.322-14.518-30.271-18.99
		c-1.863-0.764-5.417-2.559-9.221-4.171c-3.784-1.612-7.845-3.015-10.446-3.001c-0.853-0.003-1.528,0.149-1.973,0.416l-0.508,0.073
		l-0.408-0.309l-0.073-0.508l0.301-0.398l0.003-0.011c0.009-0.005,0.021-0.006,0.03-0.011c3.622-2.131,7.887-2.512,11.918-2.59
		c0.482-0.011,0.968-0.013,1.455-0.013c45.657,0.028,81.595,40.559,89.54,82.901L958.598,1570.423z"/>
	<path style="fill:#D45556;" d="M869.446,1486.787c-0.487,0-0.973,0.002-1.455,0.013c-4.031,0.078-8.296,0.459-11.918,2.59
		c-0.009,0.005-0.021,0.006-0.03,0.011l-0.003,0.011l-0.301,0.398l0.073,0.508l0.408,0.309l0.508-0.073
		c0.445-0.267,1.12-0.418,1.973-0.416c2.601-0.013,6.662,1.389,10.446,3.001c3.805,1.612,7.359,3.407,9.221,4.171
		c10.949,4.472,21.08,11.509,30.271,18.99c16.794,13.675,30.898,30.323,44.186,47.452c1.664,2.148,3.323,4.307,4.966,6.466
		l0.806,0.207l0.388-0.735C951.042,1527.346,915.103,1486.816,869.446,1486.787z"/>
	<path style="fill:#C8E4F9;" d="M1576.301,1680.661c-59.672-14.219-124.468-43.726-143.449-102.424
		c-3.852-11.917-5.474-24.244-5.474-36.666c0-2.665,0.075-5.334,0.218-8.005c1.005-18.695,5.387-37.463,11.133-55.284
		c12.54-38.861,31.904-76.223,60.955-105.023c29.051-28.8,68.464-48.389,109.437-48.546h0.502
		c52.44,0.01,99.473,30.438,141.566,61.357c1.112,0.815,2.197,1.645,3.291,2.463c7.181-22.23,18.447-43.614,31.564-63.53
		c0.293-0.446,0.604-0.876,0.9-1.319c-8.148-44.688-25.121-87.785-50.09-125.752c-0.445-0.677-0.916-1.314-1.345-1.954
		c-0.221-0.331-0.461-0.65-0.684-0.981c-18.455-27.399-41.375-52.31-69.869-69.088c-45.495-26.78-99.53-39.372-153.027-39.372
		c-29.072,0-57.982,3.719-85.274,10.904c-16.208,4.296-37.262,18.896-52.57,19.971l-1.209,0.042
		c-6.782,0.013-13.183-4.145-19.557-9.052c-6.379-4.893-12.696-10.488-19.521-13.104c-3.423-1.309-6.95-1.876-10.498-1.876
		c-9.818,0.008-19.782,4.302-28.434,9.193c-16.794,9.506-32.134,21.599-45.296,35.716c-0.995,1.086-2.193,2.415-2.209,4.205
		l0.005,0.094h-0.005c0,0.018,0.008,0.033,0.008,0.05l0.003,0.033l0.004-0.001c0.083,1.446,0.932,2.563,1.629,3.515
		c2.27,3.021,4.416,6.139,6.577,9.256c0.186,0.269,0.38,0.529,0.566,0.797c13.831,19.945,25.524,41.276,35.19,63.534
		c0.008,0.02,0.018,0.039,0.026,0.058c7.201,16.572,13.345,33.62,18.437,50.95c12.476,42.422,25.126,81.527,27.847,125.734
		c1.167,18.964,1.748,37.966,1.748,56.966c0,40.596-2.659,81.19-7.95,121.441c-3.951,30.1-9.389,60.007-16.281,89.576
		c-1.241,5.435-7.285,16.336-7.316,23.99c0,1.138,0.136,2.219,0.46,3.211c0.055,0.176,0.177,0.314,0.246,0.483
		c1.049,2.606,3.542,4.394,7.866,4.517c27.198,1,54.407,1.5,81.621,1.5c45.097,0,90.194-1.374,135.212-4.116
		c23.454-1.434,47.224-3.358,70.508-7.219c-0.039-0.009-0.078-0.016-0.117-0.025
		C1594.54,1684.913,1585.428,1682.833,1576.301,1680.661z M1517.623,1230.786c-24.999,2.702-49.993,5.41-74.991,8.111
		c0.199,0.451,0.3,0.951,0.304,1.534c-0.021,3.12-2.072,8.737-5.155,15.716c-3.083,6.961-7.212,15.182-11.425,23.161
		c-6.331,11.98-12.809,23.354-16.241,29.092c-1.144,1.913-1.948,3.199-2.296,3.672c-1.994,2.672-8.196,14.125-12.979,19.793
		c-0.409,0.471-0.802,0.908-1.183,1.301c-1.146,1.179-2.199,1.959-3.349,2.041h-0.11c-1.403,0.005-2.632-0.696-3.627-1.795
		c-1.01-1.101-1.842-2.614-2.575-4.42c-1.465-3.608-2.506-8.407-3.297-13.406c-1.58-9.975-2.167-20.827-2.81-24.05
		c-7.908-39.96-21.327-78.837-39.785-115.15c-0.822-1.62-1.733-3.451-1.738-5.424c-0.005-0.479,0.052-0.965,0.183-1.45
		c0.592-2.146,2.334-3.548,3.841-4.765c7.285-5.809,14.889-11.831,24.032-14.4c2.758-0.772,5.317-1.128,7.709-1.128
		c11.661,0.016,19.063,8.414,26.777,17.243c36.228-33.139,83.475-49.361,131.357-49.361c30.181,0,60.625,6.44,88.723,19.144
		c24.001,10.846,47.169,27.413,57.421,51.866l-0.261,0.827C1629.3,1218.236,1572.349,1224.857,1517.623,1230.786z"/>
	<path style="fill:#FFFFFF;" d="M1676.412,1188.112c-10.252-24.453-33.421-41.02-57.421-51.866
		c-28.099-12.704-58.542-19.144-88.723-19.144c-47.882,0-95.129,16.223-131.357,49.361c-7.714-8.829-15.116-17.228-26.777-17.243
		c-2.392,0-4.951,0.356-7.709,1.128c-9.143,2.569-16.747,8.591-24.032,14.4c-1.507,1.217-3.25,2.619-3.841,4.765
		c-0.131,0.484-0.188,0.971-0.183,1.45c0.005,1.973,0.916,3.805,1.738,5.424c18.458,36.313,31.877,75.19,39.785,115.15
		c0.644,3.224,1.23,14.075,2.81,24.05c0.791,4.998,1.832,9.797,3.297,13.406c0.733,1.806,1.565,3.318,2.575,4.42
		c0.995,1.099,2.224,1.801,3.627,1.795h0.11c1.15-0.083,2.203-0.862,3.349-2.041c0.38-0.393,0.773-0.83,1.183-1.301
		c4.783-5.668,10.985-17.121,12.979-19.793c0.348-0.474,1.152-1.76,2.296-3.672c3.432-5.738,9.91-17.112,16.241-29.092
		c4.213-7.979,8.343-16.2,11.425-23.161c3.083-6.979,5.134-12.597,5.155-15.716c-0.004-0.583-0.104-1.083-0.304-1.534
		c24.998-2.702,49.992-5.409,74.991-8.111c54.726-5.929,111.677-12.55,158.527-41.847L1676.412,1188.112z"/>
	<path style="fill:#EE7562;" d="M458.184,1314.789l0.005-0.002c35.408,13.283,71.868,23.349,108.898,29.974
		c34.242,6.126,68.972,9.292,103.806,9.292c33.418,0,66.941-2.918,100.235-8.934c-0.061-0.03-0.125-0.054-0.187-0.083l-0.021-0.011
		l0,0c-27.386-13.08-48.662-38.217-55.433-70.212c-1.235-5.844-1.837-11.656-2.047-17.41c-0.009-0.235-0.005-0.467-0.013-0.702
		c-16.827-15.701-29.203-36.497-34.334-60.718c-13.283-62.731,26.8-124.353,89.529-137.638c32.921-6.975,65.526,0.774,91.007,18.758
		l0.568-0.337c47.844,6.157,88.765,41.776,99.326,91.646c2.041,9.638,3.208,19.319,3.208,28.884c0,18.83-4.521,37.202-15.748,53.771
		c-9.433,13.914-22.195,25.205-36.537,33.988c-1.955,5.999-4.534,11.733-7.548,17.228c2.672-1.213,5.345-2.421,7.996-3.686
		c63.189-30.809,123.73-65.494,172.543-111.986c38.476-36.644,69.673-80.611,89.147-135.855l0.005-0.008
		c8.546-23.42,13.549-47.253,16.449-71.34l0.309-0.487l0.57-0.065c5.699,1.939,11.859,3.42,18.443,4.435l0.56,0.751
		c-0.029,0.214-0.071,0.436-0.1,0.65c6.116,0.908,12.575,1.43,19.458,1.43c3.475,0,7.049-0.125,10.739-0.395
		c50.639-3.74,105.717-66.345,105.758-137.371c0-3.263-0.115-6.544-0.356-9.837c-7.217-99.899-62.106-142.233-113.2-142.212
		c-2.24,0-4.474,0.081-6.699,0.243c-34.562,2.506-60.148,16.872-78.178,37.715c-13.591-39.719-32.122-97.778-58.385-185.945
		c-16.406-55.121-40.896-98.452-70.225-132.595c-1.145-0.704-2.255-1.468-3.436-2.107c-18.877-10.2-42.412-12.176-64.477-14.641
		c-25.743-2.878-51.513-7.359-76.513-14.466c-15.496-4.404-30.694-9.82-45.4-16.493c-9.497-4.312-20.355-9.063-30.555-14.322
		c0.811,6.262,1.365,12.511,1.562,18.757c0.052,1.918,0.089,3.837,0.089,5.755c0,16.504-2.24,32.968-6.956,49.474
		c-9.876,34.575-28.606,66.102-51.057,94.119l-0.759,0.209l-0.435-0.66c0.063-1.322,0.089-2.645,0.094-3.969
		c0-3.951-0.273-7.897-0.805-11.808c-3.608-26.561-19.144-51.495-41.764-65.952c0.016,0.161,0.097,0.298,0.094,0.464
		c-0.021,2.376-1.429,5.49-3.506,9.03c-2.083,3.525-4.862,7.424-7.704,11.118c-4.982,6.473-10.125,12.298-12.041,14.369
		c-0.273,0.296-0.482,0.515-0.614,0.648c-21.374,21.418-43.26,43.367-69.663,58.643c-28.805,16.653-62.503,24.542-95.768,28.452
		c-17.48,2.054-35.038,3.077-52.523,3.077c-27.806,0-55.433-2.588-82.281-7.748c-22.959-4.412-45.484-10.684-69.055-11.435
		c-1.334-0.042-2.674-0.066-4.014-0.066c-13.963,0-28.402,2.332-41.12,7.633c-0.496,0.207-0.967,0.457-1.457,0.673
		c-1.413,3.585-2.802,7.189-4.09,10.882c-11.425,32.626-18.024,69.163-18.024,110.05c0,16.82,1.115,34.376,3.475,52.701
		c11.743,91.325,18.354,151.962,22.025,193.782c-12.205-4.797-25.387-7.52-39.504-7.52c-12.618,0-25.969,2.143-40,6.835
		c-37.958,12.681-69.71,50.019-69.699,109.199c0,20.298,3.726,43.163,12.204,68.49c20.212,60.379,81.082,98.602,130.266,98.625
		c8.913,0,17.449-1.259,25.294-3.881c10.959-3.663,20.396-8.151,28.666-13.188c31.058,48.525,80.819,98.14,149.785,134.281
		l0.051,0.02l0.054,0.021L458.184,1314.789z M127.114,1035.996c-0.775-0.426-1.481-0.934-2.123-1.511
		c-4.496-4.043-5.871-11.491-6.004-17.735l-0.016-1.432c0.016-34.062,21.468-70.05,53.114-83.518
		c6.27-2.664,13.074-4.546,19.898-4.548c2.072,0,4.15,0.175,6.207,0.555c3.135,0.578,6.369,1.975,8.861,4.029
		c2.486,2.049,4.26,4.807,4.26,8.052l-0.042,0.874c-0.66,6.317-7.102,9.64-12.309,12.249c-14.183,7.028-27.361,16.438-37.241,28.74
		c-6.097,7.591-10.875,16.302-13.67,25.625c-2.575,8.405-0.999,18.349-7.698,25.652c-2.277,2.452-5.443,4.098-8.74,4.103
		C130.098,1037.132,128.569,1036.779,127.114,1035.996z M672.82,940.687c3.532-7.814,6.788-14.978,11.346-22.527
		c0.712-1.175,1.45-2.41,2.485-3.462c2.193-2.229,4.611-3.219,6.956-3.213c3.496,0.008,6.699,2.12,9.059,5.008
		c0.59,0.725,1.129,1.5,1.608,2.31c1.436,2.429,2.325,5.164,2.396,7.757v0.392c0,3.211-0.942,6.307-2.083,9.211l-0.623-0.244
		l0.623,0.246c-4.862,12.362-14.889,25.228-27.272,31.349c-0.78,0.382-1.565,0.74-2.371,1.07c-2.632,1.08-4.694,1.58-6.348,1.583
		c-1.623,0.01-2.899-0.521-3.69-1.51c-0.79-0.984-1.078-2.292-1.078-3.757C663.865,957.594,670.977,944.819,672.82,940.687z
		 M789.363,973.676c-1.125,0.677-2.381,0.89-3.611,0.887c-0.958,0-1.91-0.126-2.8-0.275c-12.565-2.122-24.158-8.355-36.53-8.923
		c-0.659-0.032-1.319-0.047-1.967-0.047c-12.726-0.007-24.426,5.828-34.866,13.053c-1.492,1.032-2.957,2.092-4.396,3.168
		c-4.977,3.695-11.216,10.205-17.883,11.524c-0.885,0.17-1.701,0.251-2.46,0.251c-2.365,0.008-4.197-0.814-5.375-2.185
		c-1.183-1.366-1.701-3.203-1.701-5.171c0.005-3.171,1.329-6.743,3.7-9.619c2.824-3.415,5.843-6.705,9.049-9.801
		c9.619-9.287,20.924-16.826,33.693-20.742c5.751-1.761,11.236-2.554,16.575-2.554c10.231,0,19.919,2.91,30.009,7.416
		c3.035,1.366,13.775,6.401,19.117,11.974c1.774,1.866,3.01,3.826,3.02,5.883C792.949,970.437,791.776,972.234,789.363,973.676z
		 M926.769,962.133c-3.522,0.244-7.018,0.361-10.488,0.361c-64.859,0-120.276-41.554-138.792-100.598
		c-3.622-11.534-5.83-23.734-6.421-36.417c-0.11-2.25-0.162-4.488-0.162-6.714c0-5.8,0.355-11.532,1.016-17.183
		c0.33-12.369,3.293-59.185,30.087-91.864c16.69-20.364,37.22-43.76,85.819-57.118c13.806-3.8,29.407-5.964,45.599-5.964
		c33.54,0,69.618,9.296,97.357,32.709c1.85,1.56,3.662,3.184,5.433,4.872c29.125,27.753,46.118,68.095,46.123,108.301
		c0,26.61-7.452,53.167-23.781,75.941l-0.775,0.238l-0.398-0.621C1036.044,919.75,986.433,958.041,926.769,962.133z
		 M1176.039,967.375c0.803,2.624,1.498,5.307,2.077,8.044c1.377,6.497,2.036,12.981,2.036,19.372c0,8.068-1.056,15.982-3.059,23.577
		c-8.682,32.911-35.167,59.835-70.733,67.368c-6.505,1.376-12.989,2.039-19.374,2.039c-40.34,0-76.826-26.382-88.866-65.752
		c-0.803-2.624-1.497-5.307-2.077-8.043c-1.382-6.5-2.041-12.984-2.041-19.375c0-43.03,30.014-81.671,73.792-90.942
		c6.495-1.379,12.984-2.039,19.374-2.039C1127.509,901.624,1163.992,928.006,1176.039,967.375z M1203.086,936.78
		c-1.549,0-3.098-0.17-4.626-0.518c-9.184-2.117-16.852-9.546-23.032-17.734c-14.089-18.659-22.665-43.059-23.865-67.844l0,0
		c-0.1-1.976-0.141-3.949-0.141-5.919c0-18.354,4.093-36.449,11.514-51.801c11.891-24.642,32.437-42.287,58.411-42.29
		c1.475,0,2.967,0.058,4.485,0.176c25.884,2.002,50.309,21.829,62.493,49.38c4.909,11.132,7.887,25.948,7.892,40.436
		c-0.004,9.762-1.353,19.378-4.412,27.614c-1.02,2.745-2.229,5.338-3.642,7.73c-3.041,5.12-7.952,9.021-13.175,9.928
		c-0.745,0.129-1.5,0.197-2.253,0.199c-2.072,0.003-4.145-0.513-6.086-1.638c-6.956-4.071-9.63-13.526-12.775-21.426
		c-4.689-11.901-11.844-22.68-21.169-29.501c-1.594-1.167-3.254-2.21-4.963-3.118c-5.125-2.723-10.682-4.233-16.15-4.233
		c-3.37,0-6.704,0.571-9.901,1.777c-2.526,0.952-4.943,2.339-7.166,4.082c-6.67,5.229-11.599,13.668-12.533,23.224
		c-0.104,1.033-0.152,2.08-0.152,3.132c-0.002,1.309,0.076,2.623,0.228,3.93c1.065,9.147,5.78,17.938,12.631,22.148
		c3.758,2.329,8.394,3.082,12.989,4.182c4.59,1.099,9.174,2.578,12.629,6.552c3.794,4.38,5.736,10.836,5.741,17.103
		c0,3.271-0.529,6.495-1.633,9.355c-3.206,8.3-10.341,13.615-18.021,14.814C1205.303,936.693,1204.195,936.78,1203.086,936.78z
		 M872.414,536.634c12.152-14.272,30.898-21.496,49.666-21.496c7.887,0,15.779,1.274,23.2,3.844
		c15.381,5.327,28.627,15.59,38.686,28.224c0.409,0.514,0.946,1.202,1.573,2.03c1.877,2.484,4.559,6.231,7.02,10.337
		c2.457,4.115,4.708,8.562,5.687,12.541c0.327,1.326,0.511,2.6,0.516,3.793c0.005,1.979-0.524,3.787-1.837,5.121
		c-1.314,1.334-3.318,2.13-6.086,2.316l-0.806,0.029c-3.747-0.008-7.202-1.693-10.394-3.284
		c-16.705-8.361-33.641-17.234-52.047-19.086c-2.716-0.275-5.432-0.393-8.154-0.393c-4.825,0-9.655,0.372-14.497,0.908
		c-9.718,1.073-19.473,2.808-29.302,3.475c-0.785,0.055-1.602,0.097-2.418,0.097c-2.125,0-4.312-0.286-6.186-1.508
		c-2.648-1.714-3.695-4.406-3.679-7.285C863.391,549.267,869.07,540.593,872.414,536.634z M567.009,660.607
		c6.259-6.139,14.23-10.019,21.986-13.78c55.156-26.722,110.316-53.442,165.472-80.164c2.838-1.374,5.738-2.805,8.691-4.18
		c8.858-4.124,18.175-7.736,27.618-7.744c5.705-0.003,11.451,1.334,17.098,4.679c4.603,2.723,8.533,6.354,11.747,10.571
		c5.354,7.028,8.71,15.682,9.842,24.47c0.34,2.667,0.502,5.307,0.502,7.919c-0.001,1.679-0.068,3.347-0.199,5.003
		c-1.942,24.837-17.802,47.025-31.275,66.952c-16.978,25.087-36.331,48.588-57.961,69.815
		c-20.314,19.922-42.283,40.922-68.938,45.876c-3.809,0.708-7.712,1.088-11.721,1.091c-7.127,0-14.575-1.201-22.378-3.878
		c-1.984-0.681-4.049-1.489-6.18-2.414c-14.912-6.477-32.98-18.718-48.06-33.752c-17.224-17.184-30.574-38.008-30.59-58.17
		C552.659,681.588,556.919,670.511,567.009,660.607z M470.331,745.36c10.184-1.528,19.474-2.2,27.999-2.2
		c33.196-0.005,54.899,10.205,73.609,19.623c37.739,19.014,59.432,60.614,64.749,71.782l-0.002,0.004
		c4.007,6.78,7.535,13.941,10.463,21.49c4.595,11.841,7.526,23.885,8.892,35.896c0.607,5.364,0.91,10.724,0.91,16.052
		c0,7.374-0.576,14.69-1.701,21.891c-7.874,50.406-42.642,95.149-95.029,114.208c-2.146,0.781-4.299,1.51-6.458,2.189
		c-15.113,4.75-30.496,7.017-45.672,7.017c-30.467-0.002-60.085-9.141-84.942-25.665c-7.283-4.84-14.124-10.351-20.489-16.414
		l-0.086,0.572l-0.806,0.097c-43.16-25.369-65.298-73.209-65.293-120.917c0-2.422,0.057-4.842,0.172-7.261
		c0.799-16.926,4.398-33.697,10.85-49.305C369.252,781.874,424.883,752.188,470.331,745.36z M339.714,687.989
		c4.077-15.627,12.027-30.378,23.922-41.483c11.288-10.531,26.271-17.232,41.554-18.745c2.182-0.216,4.372-0.326,6.557-0.326
		c8.835,0,17.611,1.798,25.66,5.668c2.789,1.345,7.008,3.917,10.582,7.117c3.554,3.205,6.532,7.026,6.553,11.064
		c0.005,1.442-0.398,2.894-1.293,4.27c-1.696,2.601-4.637,3.805-7.295,4.778c-9.253,3.376-18.877,5.744-28.193,8.701
		c-7.264,2.305-14.34,4.966-20.918,8.713c-16.067,9.153-27.957,24.132-39.832,38.545c-0.611,0.737-1.236,1.489-1.891,2.223
		c-1.962,2.203-4.18,4.25-7.038,5.3c-1.481,0.539-2.806,0.799-4.004,0.799c-2.988,0.024-5.066-1.722-6.197-4.252
		c-1.156-2.53-1.559-5.869-1.565-9.486C336.322,702.077,338.767,691.62,339.714,687.989z M407.587,1047.827
		c6.495-1.379,12.984-2.039,19.374-2.039c43.03,0,81.673,30.017,90.947,73.795c1.371,6.497,2.036,12.984,2.036,19.372
		c0,2.689-0.118,5.361-0.348,8.01c-3.457,39.735-32.403,74.243-73.449,82.934c-6.5,1.376-12.985,2.039-19.374,2.039
		c-2.69,0-5.362-0.117-8.01-0.348c-39.735-3.458-74.233-32.405-82.927-73.447c-1.382-6.5-2.041-12.984-2.041-19.374
		C333.795,1095.739,363.809,1057.098,407.587,1047.827z M309.396,1034.978c4.988,13.777,7.516,28.434,7.516,42.799
		c0,9.967-1.214,19.796-3.669,29.095c-2.643,9.965-6.95,19.804-14.732,25.333c-3.737,2.646-8.243,3.993-12.822,3.993
		c-6.102,0.003-12.351-2.392-17.103-7.303c-4.626-4.794-7.437-12.194-7.442-19.12c0-2.397,0.34-4.739,1.073-6.896
		c1.706-5.016,5.427-8.164,9.3-10.967c3.878-2.802,7.934-5.304,10.556-8.92c3.093-4.247,4.627-9.905,4.627-15.774
		c0-5.534-1.361-11.249-3.998-16.124c-5.909-10.927-17.354-17.537-28.025-17.53l-0.974,0.019
		c-10.959,0.411-20.818,7.303-26.921,17.234c-5.877,9.574-8.457,21.75-8.452,34.085l0.011,1.38c0.047,2.828,0.189,5.793,0.189,8.729
		c-0.005,5.896-0.565,11.707-3.878,16.012c-2.653,3.446-6.605,4.966-10.739,4.959c-4.323-0.003-8.892-1.625-12.675-4.409
		c-18.495-13.667-29.407-45.099-29.428-68.093c0-0.591,0.005-1.18,0.021-1.764c0.769-30.166,16.004-57.973,39.476-69.903
		c8.473-4.307,17.239-6.278,25.953-6.278c17.427,0.003,34.64,7.871,49.205,20.62C290.728,998.642,302.467,1015.818,309.396,1034.978
		z"/>
	<path style="fill:#EE7562;" d="M837.58,1306.321c-16.376,0-32.641-3.333-47.216-10.982c-4.233-2.217-8.287-4.77-12.202-7.551
		c-12.072-1.512-23.684-4.934-34.51-9.956c10.284,30.486,38.97,50.786,70.655,50.786c5.129,0,10.336-0.531,15.554-1.636
		c17.1-3.622,31.515-12.856,41.881-25.318C860.646,1304.621,849.093,1306.321,837.58,1306.321z"/>
	<path style="fill:#1F0A0A;" d="M259.129,553.813c12.718-5.302,27.157-7.633,41.12-7.633c1.34,0,2.68,0.024,4.014,0.066
		c23.571,0.751,46.097,7.023,69.055,11.435c26.848,5.16,54.476,7.748,82.281,7.748c17.485,0,35.043-1.023,52.523-3.077
		c33.264-3.91,66.963-11.799,95.768-28.452c26.403-15.276,48.289-37.225,69.663-58.643c0.132-0.133,0.34-0.353,0.614-0.648
		c1.915-2.071,7.059-7.896,12.041-14.369c2.842-3.695,5.621-7.594,7.704-11.118c2.078-3.54,3.485-6.654,3.506-9.03
		c0.003-0.165-0.078-0.303-0.094-0.464c22.621,14.457,38.156,39.391,41.764,65.952c0.532,3.911,0.805,7.856,0.805,11.808
		c-0.005,1.324-0.032,2.648-0.094,3.969l0.435,0.66l0.759-0.209c22.451-28.017,41.182-59.544,51.057-94.119
		c4.715-16.507,6.956-32.971,6.956-49.474c0-1.918-0.037-3.836-0.089-5.755c-0.197-6.246-0.751-12.495-1.562-18.757
		c10.2,5.259,21.058,10.01,30.555,14.322c14.706,6.673,29.904,12.09,45.4,16.493c25,7.107,50.77,11.587,76.513,14.466
		c22.064,2.465,45.599,4.441,64.477,14.641c1.181,0.639,2.291,1.403,3.436,2.107c3.285,2.019,6.466,4.221,9.397,6.861l0.864,0.032
		l0.178-0.842c-23.97-45.035-59.976-90.021-107.909-109.144c-46.316-18.472-88.77-34.099-138.211-34.099
		c-1.787,0-3.585,0.022-5.383,0.063c-2.104-1.439-4.506-2.516-7.282-3.096c-15.313-3.192-31.024-4.524-46.897-4.524
		c-25.529,0-51.471,3.444-76.801,8.128c-137.138,25.359-271.105,90.215-356.222,192.137c-24.498,29.339-38.032,61.687-52.105,94.841
		l0.235,0.811l0.843-0.06c5.537-5.202,12.114-9.22,19.23-12.348C258.162,554.27,258.632,554.019,259.129,553.813z"/>
	<path style="fill:#D45556;" d="M1208.361,983.293c-6.584-1.016-12.743-2.496-18.443-4.435l-0.57,0.065l-0.309,0.487
		c-2.899,24.087-7.903,47.92-16.449,71.34l-0.005,0.008c-19.474,55.245-50.671,99.211-89.147,135.855
		c-48.813,46.492-109.354,81.177-172.543,111.986c-2.651,1.265-5.324,2.473-7.996,3.686c-0.311,0.569-0.558,1.173-0.881,1.736l0,0
		l-0.005,0.011c-10.477,18.294-26.544,33.298-46.531,42.174c-0.018,0.009-0.039,0.014-0.057,0.022
		c29.026-8.641,55.92-18.672,80.846-29.829c0.594-0.266,1.22-0.513,1.811-0.78c22.844-10.31,44.013-21.572,63.582-33.612
		c0.647-0.398,1.252-0.818,1.896-1.218c46.158-28.671,83.423-61.603,112.901-96.347c0.383-0.452,0.733-0.911,1.115-1.363
		c55.145-65.535,82.901-137.233,91.245-198.385c0.029-0.214,0.071-0.436,0.1-0.65L1208.361,983.293z"/>
	<path style="fill:#1F0A0A;" d="M347.496,834.418c-6.452,15.608-10.052,32.379-10.85,49.305c-0.114,2.419-0.172,4.839-0.172,7.261
		c-0.005,47.708,22.133,95.548,65.293,120.917l0.806-0.097l0.086-0.572c-0.878-0.836-1.777-1.647-2.635-2.505
		c-8.148-8.156-15.433-17.292-21.577-27.355c-4.459-7.316-8.374-15.081-11.577-23.315c-6.652-17.129-9.802-34.695-9.802-51.948
		c0-58.989,36.859-114.315,96.741-136.099c4.294-1.563,8.617-2.92,12.956-4.076c13.019-3.47,26.192-5.138,39.212-5.138
		c53.005,0.003,103.445,27.638,130.68,73.716c0.011,0.018,0.02,0.038,0.03,0.056l0.002-0.004
		c-5.317-11.168-27.01-52.769-64.749-71.782c-18.71-9.417-40.413-19.628-73.609-19.623c-8.525,0-17.815,0.672-27.999,2.2
		C424.883,752.188,369.252,781.874,347.496,834.418z"/>
	<path style="fill:#DAD3EB;" d="M636.656,834.513c-27.235-46.078-77.675-73.714-130.68-73.716c-13.02,0-26.193,1.668-39.212,5.138
		c-4.339,1.156-8.662,2.513-12.956,4.076c-59.882,21.784-96.741,77.11-96.741,136.099c0,17.253,3.151,34.819,9.802,51.948
		c3.203,8.235,7.117,15.999,11.577,23.315l-0.032-0.638c5.736-11.956,13.581-23.109,20.243-32.586l0.01-0.016
		c6.642-8.923,13.973-16.965,21.771-24.328l0.505-0.085c1.785-48.819,39.107-92.836,92.478-104.137
		c56.291-11.925,110.925,16.702,129.887,65.125l0.536-0.071c4.077,2.096,8.065,4.344,11.896,6.832l0.299,0.487
		c-1.366-12.011-4.297-24.055-8.892-35.896c-2.928-7.55-6.457-14.71-10.463-21.49C636.676,834.551,636.667,834.53,636.656,834.513z"
		/>
	<path style="fill:#F7EFEC;" d="M643.847,884.636l-0.536,0.071c0.071,0.18,0.163,0.346,0.233,0.526
		c1.894,4.907,3.543,9.946,4.663,15.237c12.251,57.843-28.229,115.414-90.419,128.584c-62.184,13.17-122.531-23.046-134.783-80.889
		c-1.696-8.004-2.345-15.999-2.103-23.875c0.005-0.191,0.036-0.38,0.044-0.571l-0.505,0.085
		c-7.798,7.363-15.13,15.405-21.771,24.328l-0.01,0.016c-6.662,9.477-14.508,20.63-20.243,32.586l0.032,0.638
		c6.144,10.064,13.429,19.199,21.577,27.355c0.859,0.858,1.757,1.669,2.635,2.505c6.365,6.063,13.207,11.574,20.489,16.414
		c24.856,16.524,54.475,25.663,84.942,25.665c15.176,0,30.56-2.268,45.672-7.017c2.159-0.678,4.313-1.408,6.458-2.189
		c52.387-19.059,87.156-63.802,95.029-114.208c1.125-7.201,1.701-14.517,1.701-21.891c0-5.328-0.303-10.687-0.91-16.052
		l-0.299-0.487C651.912,888.98,647.924,886.732,643.847,884.636z"/>
	<path style="fill:#21183B;" d="M423.004,948.165c12.252,57.843,72.599,94.059,134.783,80.889
		c62.189-13.17,102.67-70.741,90.419-128.584c-1.12-5.291-2.768-10.331-4.663-15.237c-0.07-0.18-0.162-0.346-0.233-0.526
		c-18.962-48.424-73.596-77.05-129.887-65.125c-53.371,11.301-90.693,55.318-92.478,104.137c-0.008,0.192-0.04,0.38-0.044,0.571
		C420.66,932.167,421.309,940.161,423.004,948.165z M538.843,823.687c48.985-0.003,92.287,31.613,102.178,78.303
		c1.382,6.526,2.051,13.05,2.046,19.5c-0.005,47.101-35.509,90.086-86.682,100.925c-8.08,1.711-16.119,2.531-24.011,2.531
		c-48.991,0.005-92.292-31.613-102.178-78.304c-1.387-6.528-2.051-13.052-2.051-19.499c0.005-47.102,35.504-90.087,86.687-100.923
		C522.901,824.509,530.945,823.687,538.843,823.687z"/>
	<path style="fill:#662483;" d="M428.144,927.143c0,6.447,0.664,12.971,2.051,19.499c9.886,46.691,53.188,78.309,102.178,78.304
		c7.892,0,15.931-0.819,24.011-2.531c51.173-10.839,86.677-53.824,86.682-100.925c0.005-6.45-0.664-12.974-2.046-19.5
		c-9.891-46.69-53.193-78.306-102.178-78.303c-7.898,0-15.941,0.822-24.011,2.533C463.648,837.056,428.149,880.041,428.144,927.143z
		 M472.211,892.444c-2.498-2.809-4.325-6.217-5.146-10.095c-0.335-1.547-0.492-3.093-0.487-4.619
		c0-11.147,8.389-21.266,20.437-23.817c1.889-0.403,3.773-0.594,5.626-0.594c8.41,0,16.093,3.975,20.578,10.402
		c0.036,0.053,0.06,0.117,0.097,0.17c2.899-1.012,5.856-1.922,8.946-2.578c37.409-7.924,73.708,13.861,81.077,48.658
		c7.374,34.798-16.977,69.427-54.386,77.351c-37.409,7.921-73.714-13.863-81.082-48.66c-3.243-15.307-0.292-30.555,7.159-43.538
		c-0.034-0.028-0.076-0.048-0.11-0.076C473.951,894.25,473.044,893.381,472.211,892.444z M467.949,965.349
		c2.23,0.67,3.905,2.185,5.443,3.57c13.534,12.241,25.597,23.584,44.495,27.74c4.511,0.992,9.148,1.463,13.811,1.463
		c8.766,0,17.631-1.665,25.921-4.642c12.707-4.564,24.147-12.113,33.934-21.107c4.595-4.211,7.144-10.046,11.142-15.036
		c3.02-3.711,5.056-9.841,9.703-12.898c1.675-1.086,3.627-1.573,5.563-1.573c4.548,0.008,9.18,2.656,10.352,7.003
		c0.314,1.193,0.45,2.444,0.45,3.715c-0.011,5.017-2.115,10.418-4.302,14.489c-10.65,19.76-29.344,35.52-50.99,44.247
		c-14.026,5.65-29.193,8.389-44.291,8.389c-8.217,0-16.412-0.811-24.393-2.407c-4.977-0.997-9.949-2.305-14.518-4.48
		c-5.569-2.651-10.3-6.469-14.942-10.211c-6.379-5.15-14.266-11.783-17.987-19.681c-0.701-1.5-1.261-3.046-1.617-4.637
		c-0.23-1.016-0.35-2.067-0.35-3.119c-0.005-2.523,0.696-5.079,2.308-7.183c1.837-2.386,4.878-3.969,7.945-3.978
		C466.406,965.014,467.191,965.119,467.949,965.349z"/>
	<path style="fill:#21183B;" d="M516.784,871.817c0.324,1.544,0.481,3.085,0.481,4.611c-0.005,11.15-8.384,21.274-20.437,23.825
		c-1.879,0.398-3.747,0.588-5.579,0.588c-6.102,0-11.815-2.121-16.219-5.718c-7.451,12.983-10.402,28.231-7.159,43.538
		c7.369,34.797,43.673,56.582,81.082,48.66c37.409-7.923,61.76-42.553,54.386-77.351c-7.369-34.797-43.668-56.582-81.077-48.658
		c-3.09,0.655-6.047,1.565-8.946,2.578C514.926,866.239,516.159,868.88,516.784,871.817z M485.874,949.482
		c0.549-6.809,6.285-11.647,13.073-15.099c6.814-3.457,14.816-5.565,20.301-6.749c9.274-2.002,18.747-2.661,28.177-2.661
		c5.637,0,11.263,0.235,16.831,0.562c12.529,0.71,23.242,7.029,24.985,19.88c0.094,0.709,0.141,1.411,0.136,2.107
		c-0.011,6.984-4.622,13.039-9.818,17.833c-3.684,3.394-8.044,6.047-12.592,8.227c-10.027,4.799-21.227,7.343-32.338,7.345
		c-4.61,0-9.205-0.44-13.691-1.337c-7.107-1.424-15.815-4.55-22.807-9.321c-6.977-4.76-12.309-11.234-12.315-19.34
		C485.817,950.45,485.838,949.968,485.874,949.482z"/>
	<path style="fill:#F7EFEC;" d="M475.03,895.124c4.404,3.596,10.116,5.718,16.219,5.718c1.832,0,3.7-0.191,5.579-0.588
		c12.052-2.552,20.431-12.676,20.437-23.825c0-1.526-0.157-3.067-0.481-4.611c-0.624-2.937-1.858-5.578-3.467-7.926
		c-0.037-0.054-0.061-0.117-0.097-0.17c-4.485-6.427-12.168-10.402-20.578-10.402c-1.853,0-3.737,0.191-5.626,0.594
		c-12.048,2.552-20.437,12.671-20.437,23.817c-0.005,1.526,0.152,3.072,0.487,4.619c0.82,3.878,2.648,7.286,5.146,10.095
		c0.833,0.936,1.74,1.806,2.71,2.604C474.955,895.076,474.997,895.096,475.03,895.124z"/>
	<path style="fill:#B54288;" d="M457.681,968.992c-1.611,2.104-2.313,4.661-2.308,7.183c0,1.052,0.12,2.103,0.35,3.119
		c0.356,1.591,0.916,3.137,1.617,4.637c3.721,7.898,11.608,14.531,17.987,19.681c4.642,3.742,9.373,7.56,14.942,10.211
		c4.569,2.174,9.541,3.483,14.518,4.48c7.981,1.596,16.176,2.407,24.393,2.407c15.099,0,30.265-2.74,44.291-8.389
		c21.645-8.727,40.339-24.487,50.99-44.247c2.188-4.071,4.292-9.472,4.302-14.489c0-1.272-0.136-2.522-0.45-3.715
		c-1.173-4.347-5.804-6.995-10.352-7.003c-1.936,0-3.889,0.487-5.563,1.573c-4.647,3.056-6.683,9.187-9.703,12.898
		c-3.999,4.99-6.547,10.825-11.142,15.036c-9.787,8.994-21.227,16.543-33.934,21.107c-8.29,2.978-17.156,4.642-25.921,4.642
		c-4.664,0-9.3-0.471-13.811-1.463c-18.898-4.155-30.961-15.499-44.495-27.74c-1.539-1.384-3.213-2.9-5.443-3.57
		c-0.759-0.23-1.543-0.335-2.323-0.335C462.559,965.022,459.519,966.605,457.681,968.992z"/>
	<path style="fill:#4C2159;" d="M498.131,970.269c6.992,4.771,15.701,7.897,22.807,9.321c4.486,0.898,9.08,1.337,13.691,1.337
		c11.111-0.003,22.31-2.546,32.338-7.345c4.548-2.18,8.907-4.833,12.592-8.227c5.197-4.794,9.808-10.849,9.818-17.833
		c0.005-0.696-0.042-1.398-0.136-2.107c-1.743-12.851-12.456-19.17-24.985-19.88c-5.569-0.327-11.195-0.562-16.831-0.562
		c-9.43,0-18.903,0.659-28.177,2.661c-5.484,1.183-13.487,3.292-20.301,6.749c-6.788,3.452-12.524,8.29-13.073,15.099
		c-0.037,0.487-0.058,0.968-0.058,1.447C485.822,959.035,491.155,965.509,498.131,970.269z"/>
	<path style="fill:#D45556;" d="M789.918,962.633c-5.343-5.573-16.082-10.608-19.117-11.974c-10.09-4.506-19.778-7.416-30.009-7.416
		c-5.338,0-10.823,0.793-16.575,2.554c-12.769,3.915-24.074,11.455-33.693,20.742c-3.206,3.096-6.225,6.386-9.049,9.801
		c-2.371,2.876-3.695,6.448-3.7,9.619c0,1.968,0.518,3.805,1.701,5.171c1.177,1.371,3.009,2.193,5.375,2.185
		c0.759,0,1.575-0.081,2.46-0.251c6.667-1.319,12.906-7.829,17.883-11.524c1.439-1.076,2.905-2.136,4.396-3.168
		c10.439-7.225,22.14-13.06,34.866-13.053c0.648,0,1.308,0.016,1.967,0.047c12.372,0.568,23.964,6.801,36.53,8.923
		c0.89,0.149,1.842,0.275,2.8,0.275c1.23,0.003,2.486-0.21,3.611-0.887c2.413-1.442,3.585-3.24,3.575-5.16
		C792.928,966.459,791.693,964.499,789.918,962.633z"/>
	<path style="fill:#D45556;" d="M906.264,1147.872c4.264,20.149,2.97,40.162-2.756,58.516c0.106,0.2,0.228,0.39,0.333,0.59
		c4.192,8.008,7.458,16.664,9.425,25.948c1.475,6.989,2.188,13.958,2.188,20.824c0,10.713-1.722,21.172-4.914,31.068
		c-0.026,0.081-0.064,0.157-0.092,0.237c14.342-8.782,27.104-20.073,36.537-33.988c11.226-16.569,15.748-34.941,15.748-53.771
		c0-9.564-1.167-19.246-3.208-28.884c-10.561-49.87-51.482-85.489-99.326-91.646l-0.568,0.337c0.159,0.113,0.325,0.215,0.484,0.328
		C882.954,1093.719,899.994,1118.269,906.264,1147.872z"/>
	<path style="fill:#D45556;" d="M816.876,1286.167c-8.117,1.719-16.203,2.535-24.173,2.535c-4.841,0-9.64-0.301-14.371-0.887
		c-0.057-0.007-0.113-0.021-0.17-0.028c3.915,2.781,7.969,5.334,12.202,7.551c14.575,7.649,30.841,10.982,47.216,10.982
		c11.514,0,23.067-1.699,34.161-4.656c0.439-0.528,0.917-1.026,1.342-1.567c10.164-12.927,16.041-29.114,16.041-46.164
		c0-4.709-0.504-9.488-1.433-14.279C871.32,1262.647,846.665,1279.859,816.876,1286.167z"/>
	<path style="fill:#82C292;" d="M713.373,1253.766c0-32.561,15.782-62.756,41.46-81.513l-0.005-0.354
		c0-17.511,12.194-33.232,30.003-37.005c2.638-0.56,5.275-0.83,7.877-0.83c13.748,0,26.364,7.549,32.991,19.407
		c32.927,3.707,62.173,23.529,77.81,52.918c5.726-18.354,7.02-38.368,2.756-58.516c-6.27-29.603-23.31-54.153-46.149-70.44
		c-0.16-0.113-0.326-0.215-0.484-0.328c-25.481-17.984-58.086-25.733-91.007-18.758c-62.729,13.285-102.812,74.907-89.529,137.638
		c5.131,24.221,17.507,45.017,34.334,60.718C713.399,1255.72,713.373,1254.74,713.373,1253.766z M739.117,1120.135
		c-3.643,5.066-7.631,9.941-9.002,13.052c-4.763,10.708-7.306,22.412-7.306,34.128c0,1.857,0.068,3.715,0.199,5.568
		c0.173,2.533,0.487,7.073,0.487,12.082c-0.026,7.991-0.727,17.122-4.38,21.52c-1.225,1.465-2.878,2.386-4.877,2.378
		c-2.711-0.011-5.924-1.588-9.923-5.139c-7.766-6.916-11.095-17.435-12.429-27.573c-0.435-3.284-0.639-6.66-0.639-10.085
		c0.005-16.248,4.658-33.583,12.487-47.18c3.941-6.837,9.436-12.772,15.957-17.226c3.475-2.363,10.603-4.676,16.056-4.695
		c1.601,0.003,3.056,0.202,4.265,0.709c1.984,0.843,3.909,2.115,5.124,4.025c0.691,1.084,0.995,2.316,0.989,3.609
		C746.099,1109.767,742.744,1115.04,739.117,1120.135z"/>
	<path style="fill:#82C292;" d="M778.161,1287.787c0.057,0.007,0.113,0.021,0.17,0.028c4.732,0.586,9.531,0.887,14.371,0.887
		c7.971,0,16.056-0.816,24.173-2.535c29.789-6.308,54.444-23.52,70.815-46.512c-0.08-0.412-0.107-0.823-0.195-1.236l0,0
		l-0.058-0.214l-0.005-0.032c-6.418-29.868-29.859-51.688-57.992-57.491c-0.782,3.278-1.955,6.432-3.548,9.358
		c-5.105,9.371-14.111,16.538-25.372,18.923c-2.632,0.56-5.265,0.827-7.856,0.827c-10.616,0-20.545-4.527-27.583-12.033
		c-15.86,13.956-25.453,34.29-25.453,56.046c0,5.126,0.534,10.331,1.638,15.552c0.508,2.402,1.146,4.747,1.869,7.047
		c0.153,0.487,0.353,0.948,0.515,1.431C754.477,1282.853,766.089,1286.275,778.161,1287.787z"/>
	<path style="fill:#F7EFEC;" d="M845.88,1349.898c3.278-1.069,6.45-2.299,9.546-3.67c0.018-0.009,0.039-0.014,0.057-0.022
		c19.987-8.876,36.054-23.88,46.531-42.174l0.005-0.011l0,0c0.322-0.563,0.569-1.167,0.881-1.736
		c3.014-5.496,5.593-11.23,7.548-17.228c0.027-0.08,0.065-0.156,0.092-0.237c3.192-9.896,4.914-20.355,4.914-31.068
		c0-6.867-0.712-13.835-2.188-20.824c-1.968-9.284-5.234-17.94-9.425-25.948c-0.105-0.201-0.227-0.39-0.333-0.59
		c-15.636-29.389-44.882-49.211-77.81-52.918c-6.627-11.858-19.242-19.407-32.991-19.407c-2.601,0-5.239,0.27-7.877,0.83
		c-17.809,3.773-30.003,19.495-30.003,37.005l0.005,0.354c-25.678,18.757-41.46,48.952-41.46,81.513
		c0,0.973,0.025,1.954,0.055,2.935c0.008,0.235,0.004,0.467,0.013,0.702c0.21,5.754,0.811,11.566,2.047,17.41
		c6.771,31.995,28.046,57.132,55.433,70.212l0,0l0.021,0.011c0.062,0.03,0.126,0.054,0.187,0.083
		c13.323,6.327,28.071,9.837,43.34,9.837c6.871,0,13.853-0.712,20.85-2.195c3.346-0.708,6.589-1.608,9.766-2.624
		C845.348,1350.052,845.618,1349.983,845.88,1349.898z M743.137,1276.401c-0.722-2.3-1.361-4.645-1.869-7.047
		c-1.104-5.22-1.638-10.425-1.638-15.552c0-21.756,9.593-42.09,25.453-56.046c7.038,7.506,16.967,12.033,27.583,12.033
		c2.591,0,5.224-0.267,7.856-0.827c11.261-2.385,20.266-9.552,25.372-18.923c1.594-2.926,2.766-6.081,3.548-9.358
		c28.133,5.803,51.575,27.623,57.992,57.491l0.005,0.032l0.058,0.214l0,0c0.087,0.413,0.115,0.824,0.195,1.236
		c0.929,4.792,1.433,9.57,1.433,14.279c0,17.051-5.877,33.238-16.041,46.164c-0.425,0.54-0.903,1.038-1.342,1.567
		c-10.366,12.462-24.78,21.696-41.881,25.318c-5.218,1.104-10.425,1.636-15.554,1.636c-31.685,0-60.371-20.3-70.655-50.786
		C743.49,1277.349,743.289,1276.888,743.137,1276.401z"/>
	<path style="fill:#AECD91;" d="M740.012,1097.675c-1.208-0.508-2.664-0.706-4.265-0.709c-5.453,0.018-12.582,2.332-16.056,4.695
		c-6.521,4.453-12.016,10.389-15.957,17.226c-7.829,13.597-12.482,30.932-12.487,47.18c0,3.425,0.204,6.801,0.639,10.085
		c1.334,10.137,4.663,20.656,12.429,27.573c3.998,3.551,7.212,5.129,9.923,5.139c1.999,0.008,3.653-0.913,4.877-2.378
		c3.653-4.399,4.354-13.529,4.38-21.52c0-5.008-0.314-9.548-0.487-12.082c-0.131-1.853-0.199-3.711-0.199-5.568
		c0-11.715,2.544-23.42,7.306-34.128c1.371-3.112,5.359-7.986,9.002-13.052c3.626-5.095,6.981-10.368,7.008-14.826
		c0.005-1.293-0.299-2.525-0.989-3.609C743.921,1099.79,741.996,1098.518,740.012,1097.675z"/>
	<path style="fill:#1F0A0A;" d="M344.079,724.612c1.198,0,2.522-0.259,4.004-0.799c2.857-1.05,5.076-3.098,7.038-5.3
		c0.654-0.734,1.28-1.485,1.891-2.223c11.875-14.413,23.765-29.391,39.832-38.545c6.578-3.747,13.654-6.408,20.918-8.713
		c9.316-2.957,18.94-5.325,28.193-8.701c2.658-0.973,5.6-2.177,7.295-4.778c0.895-1.376,1.298-2.828,1.293-4.27
		c-0.021-4.038-2.999-7.859-6.553-11.064c-3.574-3.2-7.793-5.772-10.582-7.117c-8.049-3.87-16.825-5.668-25.66-5.668
		c-2.185,0-4.375,0.11-6.557,0.326c-15.283,1.512-30.265,8.214-41.554,18.745c-11.896,11.105-19.845,25.856-23.922,41.483
		c-0.947,3.632-3.391,14.089-3.397,22.886c0.005,3.616,0.408,6.955,1.565,9.486C339.013,722.891,341.09,724.636,344.079,724.612z"/>
	<path style="fill:#D45556;" d="M201.304,971.813c-23.472,11.93-38.707,39.737-39.476,69.903c-0.016,0.584-0.021,1.172-0.021,1.764
		c0.021,22.994,10.933,54.426,29.428,68.093c3.783,2.784,8.353,4.407,12.675,4.409c4.135,0.008,8.086-1.513,10.739-4.959
		c3.313-4.305,3.873-10.116,3.878-16.012c0-2.936-0.141-5.901-0.189-8.729l-0.011-1.38c-0.005-12.335,2.575-24.511,8.452-34.085
		c6.102-9.93,15.962-16.823,26.921-17.234l0.974-0.019c10.671-0.007,22.116,6.603,28.025,17.53
		c2.638,4.875,3.998,10.59,3.998,16.124c0,5.869-1.534,11.527-4.627,15.774c-2.622,3.616-6.678,6.118-10.556,8.92
		c-3.873,2.803-7.594,5.951-9.3,10.967c-0.733,2.156-1.073,4.498-1.073,6.896c0.005,6.926,2.816,14.326,7.442,19.12
		c4.752,4.912,11.001,7.306,17.103,7.303c4.579,0,9.085-1.347,12.822-3.993c7.782-5.529,12.089-15.368,14.732-25.333
		c2.454-9.3,3.669-19.128,3.669-29.095c0-14.366-2.528-29.022-7.516-42.799c-6.929-19.16-18.668-36.336-32.934-48.823
		c-14.565-12.749-31.778-20.617-49.205-20.62C218.543,965.535,209.777,967.506,201.304,971.813z"/>
	<path style="fill:#F3956E;" d="M148.048,1007.377c2.795-9.323,7.573-18.034,13.67-25.625c9.881-12.301,23.059-21.711,37.241-28.74
		c5.207-2.609,11.65-5.932,12.309-12.249l0.042-0.874c0-3.245-1.774-6.003-4.26-8.052c-2.491-2.054-5.726-3.451-8.861-4.029
		c-2.057-0.379-4.135-0.555-6.207-0.555c-6.824,0.002-13.628,1.884-19.898,4.548c-31.646,13.468-53.099,49.456-53.114,83.518
		l0.016,1.432c0.133,6.244,1.508,13.692,6.004,17.735c0.643,0.578,1.348,1.086,2.123,1.511c1.455,0.782,2.983,1.135,4.496,1.135
		c3.297-0.005,6.464-1.651,8.74-4.103C147.049,1025.726,145.473,1015.782,148.048,1007.377z"/>
	<path style="fill:#EC635C;" d="M418.763,1231.59c2.648,0.23,5.32,0.348,8.01,0.348c6.39,0,12.874-0.662,19.374-2.039
		c41.046-8.692,69.992-43.2,73.449-82.934c0.23-2.649,0.348-5.321,0.348-8.01c0-6.387-0.665-12.875-2.036-19.372
		c-9.274-43.778-47.918-73.795-90.947-73.795c-6.39,0-12.879,0.66-19.374,2.039c-43.778,9.271-73.792,47.912-73.792,90.942
		c0,6.39,0.66,12.875,2.041,19.374C344.53,1199.185,379.028,1228.132,418.763,1231.59z"/>
	<path style="fill:#1F0A0A;" d="M912.921,668.439c3.517-0.243,7.013-0.361,10.488-0.361
		c77.529-0.005,141.565,59.379,145.213,137.018c0.1,2.229,0.152,4.451,0.152,6.66c0,6.539-0.445,12.995-1.277,19.346
		c-1.528,11.597-4.532,22.773-8.614,33.452c-0.458,1.194-1.01,2.343-1.497,3.524l0.398,0.621l0.775-0.238
		c16.329-22.774,23.781-49.331,23.781-75.941c-0.005-40.206-16.999-80.548-46.123-108.301c-1.771-1.688-3.584-3.312-5.433-4.872
		c-27.739-23.413-63.817-32.709-97.357-32.709c-16.193,0-31.793,2.164-45.599,5.964c-48.598,13.358-69.129,36.755-85.819,57.118
		c-26.794,32.679-29.757,79.495-30.087,91.864c0.002-0.019,0.002-0.039,0.005-0.058C780.179,730.958,838.977,673.51,912.921,668.439
		z"/>
	<path style="fill:#DAD3EB;" d="M785.538,850.422l0.522-0.158c-2.383-52.016,36.107-100.411,92.461-112.346
		c53.345-11.296,105.236,13.81,126.671,57.675l0.497-0.126c10.143,3.575,20.128,7.963,29.847,13.442l0.016,0.011
		c9.933,5.964,21.625,12.976,31.715,21.583l0.23,0.597c0.832-6.351,1.277-12.807,1.277-19.346c0-2.208-0.052-4.43-0.152-6.66
		c-3.648-77.639-67.685-137.023-145.213-137.018c-3.475,0-6.971,0.118-10.488,0.361c-73.944,5.071-132.742,62.519-140.995,133.085
		c-0.003,0.019-0.003,0.039-0.005,0.058c-0.661,5.652-1.016,11.383-1.016,17.183c0,2.227,0.053,4.464,0.162,6.714
		c0.591,12.683,2.8,24.883,6.421,36.417l0.073-0.568C780.022,857.561,782.712,853.942,785.538,850.422z"/>
	<path style="fill:#F7EFEC;" d="M1057.386,868.077c0.487-1.181,1.039-2.33,1.497-3.524c4.082-10.679,7.086-21.855,8.614-33.452
		l-0.23-0.597c-10.09-8.606-21.782-15.619-31.715-21.583l-0.016-0.011c-9.719-5.479-19.704-9.868-29.847-13.442l-0.497,0.126
		c0.084,0.173,0.188,0.332,0.272,0.505c3.428,7.12,6.139,14.68,7.839,22.708c12.252,57.846-28.234,115.414-90.418,128.584
		c-62.189,13.17-122.532-23.043-134.783-80.889c-1.109-5.233-1.769-10.464-2.041-15.661c-0.01-0.193,0.008-0.384-0.001-0.577
		l-0.522,0.158c-2.826,3.52-5.516,7.139-7.976,10.907l-0.073,0.568c18.516,59.044,73.933,100.598,138.792,100.598
		c3.469,0,6.966-0.117,10.488-0.361C986.433,958.041,1036.044,919.75,1057.386,868.077z"/>
	<path style="fill:#21183B;" d="M878.521,737.919c-56.354,11.935-94.844,60.33-92.461,112.346c0.009,0.193-0.009,0.383,0.001,0.577
		c0.272,5.197,0.932,10.428,2.041,15.661c12.251,57.846,72.594,94.059,134.783,80.889c62.184-13.17,102.67-70.738,90.418-128.584
		c-1.7-8.028-4.412-15.588-7.839-22.708c-0.084-0.173-0.189-0.332-0.272-0.505C983.757,751.728,931.866,726.622,878.521,737.919z
		 M1008.165,839.822c-0.005,47.104-35.504,90.091-86.682,100.93c-8.081,1.711-16.124,2.533-24.017,2.531
		c-48.99,0.005-92.287-31.611-102.178-78.304c-1.387-6.526-2.057-13.049-2.052-19.497c0.005-47.102,35.509-90.087,86.687-100.925
		c8.075-1.711,16.114-2.533,24.011-2.533c48.986-0.003,92.292,31.613,102.184,78.306
		C1007.5,826.854,1008.165,833.377,1008.165,839.822z"/>
	<path style="fill:#662483;" d="M903.935,742.024c-7.897,0-15.936,0.821-24.011,2.533c-51.178,10.839-86.682,53.824-86.687,100.925
		c-0.005,6.448,0.665,12.971,2.052,19.497c9.891,46.693,53.188,78.308,102.178,78.304c7.892,0.003,15.936-0.819,24.017-2.531
		c51.178-10.839,86.677-53.826,86.682-100.93c0-6.445-0.665-12.968-2.047-19.492C996.227,773.637,952.92,742.021,903.935,742.024z
		 M996.416,865.424c-0.204,8.73-4.721,17.985-8.463,25.28c-2.727,5.302-5.506,10.711-9.525,15.395
		c-3.292,3.836-7.306,7.047-11.451,9.977c-18.872,13.322-41.889,21.572-65.214,22.376c-1.23,0.042-2.46,0.063-3.684,0.063
		c-19.338-0.002-38.566-5.221-54.33-15.249c-2.251-1.432-4.434-2.963-6.535-4.591c-4.572-3.558-9.903-9.058-10.894-15.073l-0.002,0
		l-0.104-1.251c0.042-5.391,5.328-10.25,10.975-10.284c0.487,0,0.979,0.037,1.471,0.115c5.49,0.908,9.833,5.686,14.099,7.855
		c5.678,2.944,10.373,7.241,16.281,9.224c10.624,3.595,21.918,5.768,33.285,5.768c2.093,0,4.192-0.074,6.296-0.225
		c13.466-0.981,26.889-5.32,37.607-13.202c15.591-11.461,22.023-26.719,29.428-43.398c0.848-1.89,1.764-3.951,3.522-5.469
		c1.648-1.411,3.8-2.054,5.945-2.054c1.717,0,3.443,0.416,4.924,1.222c3.292,1.805,5.281,5.16,5.961,8.622
		c0.288,1.434,0.408,2.897,0.408,4.372V865.424z M944.311,791.294c-0.019,0.04-0.047,0.077-0.066,0.117
		c12.072,8.849,20.949,21.591,24.193,36.897c7.369,34.797-16.983,69.427-54.391,77.351c-37.409,7.923-73.708-13.864-81.077-48.658
		c-7.369-34.798,16.982-69.427,54.391-77.351c3.09-0.653,6.16-1.021,9.217-1.271c0.012-0.064,0.007-0.132,0.02-0.197
		c1.821-9.381,9.478-17.362,19.976-19.586c1.9-0.403,3.794-0.597,5.658-0.597c11.54-0.005,21.771,7.45,24.116,18.503
		c0.319,1.502,0.466,2.998,0.466,4.477C946.813,784.601,945.908,788.107,944.311,791.294z"/>
	<path style="fill:#21183B;" d="M926.392,804.935c-1.905,0.403-3.8,0.597-5.652,0.597c-11.54,0.003-21.771-7.45-24.116-18.501
		c-0.319-1.481-0.461-2.959-0.461-4.42c0-1.432,0.161-2.845,0.415-4.233c-3.057,0.25-6.127,0.618-9.217,1.271
		c-37.409,7.923-61.76,42.553-54.391,77.351c7.369,34.794,43.668,56.582,81.077,48.658c37.409-7.924,61.76-42.554,54.391-77.351
		c-3.244-15.306-12.121-28.047-24.193-36.897C940.904,798.011,934.522,803.214,926.392,804.935z M917.003,839.055
		c4.804-1,11.666-2.13,18.417-2.132c8.646,0.01,17.26,1.829,20.94,8.578c1.528,2.826,2.203,5.796,2.203,8.784
		c-0.047,12.851-12.179,25.953-22.038,32.95c-12.189,8.599-27.361,13.196-42.391,13.199c-0.706,0-1.413-0.011-2.124-0.032
		c-5.045-0.146-10.106-0.806-14.848-2.415c-7.353-2.499-14.711-6.693-16.935-14.305c-0.639-2.196-0.937-4.325-0.937-6.375
		c0-9.551,6.531-17.189,15.716-21.923C888.26,848.546,902.155,842.146,917.003,839.055z"/>
	<path style="fill:#F7EFEC;" d="M922.231,757.999c-1.863,0-3.758,0.194-5.658,0.597c-10.498,2.224-18.155,10.205-19.976,19.586
		c-0.013,0.064-0.008,0.132-0.02,0.197c-0.253,1.388-0.415,2.801-0.415,4.233c0,1.46,0.141,2.939,0.461,4.42
		c2.345,11.05,12.576,18.503,24.116,18.501c1.853,0,3.747-0.194,5.652-0.597c8.13-1.721,14.512-6.924,17.853-13.524
		c0.019-0.04,0.047-0.077,0.066-0.117c1.596-3.187,2.502-6.693,2.502-10.315c0-1.479-0.146-2.975-0.466-4.477
		C944.003,765.449,933.771,757.994,922.231,757.999z"/>
	<path style="fill:#B54288;" d="M990.047,851.904c-1.481-0.806-3.208-1.222-4.924-1.222c-2.146,0-4.297,0.644-5.945,2.054
		c-1.758,1.518-2.674,3.579-3.522,5.469c-7.406,16.679-13.838,31.937-29.428,43.398c-10.718,7.882-24.142,12.22-37.607,13.202
		c-2.104,0.152-4.203,0.225-6.296,0.225c-11.367,0-22.661-2.172-33.285-5.768c-5.908-1.983-10.603-6.28-16.281-9.224
		c-4.265-2.169-8.609-6.948-14.099-7.855c-0.492-0.078-0.984-0.115-1.471-0.115c-5.647,0.034-10.933,4.893-10.975,10.284
		l0.104,1.251l0.002,0c0.991,6.015,6.322,11.515,10.894,15.073c2.101,1.628,4.284,3.158,6.535,4.591
		c15.765,10.028,34.993,15.247,54.33,15.249c1.225,0,2.455-0.021,3.684-0.063c23.325-0.803,46.342-9.054,65.214-22.376
		c4.145-2.931,8.159-6.141,11.451-9.977c4.019-4.684,6.798-10.093,9.525-15.395c3.742-7.295,8.258-16.55,8.463-25.28v-0.526
		c0-1.476-0.121-2.938-0.408-4.372C995.327,857.064,993.339,853.709,990.047,851.904z"/>
	<path style="fill:#4C2159;" d="M859.288,877.307c0,2.049,0.298,4.179,0.937,6.375c2.224,7.612,9.583,11.807,16.935,14.305
		c4.742,1.609,9.802,2.269,14.848,2.415c0.712,0.021,1.418,0.032,2.124,0.032c15.031-0.003,30.203-4.6,42.391-13.199
		c9.86-6.997,21.991-20.099,22.038-32.95c0-2.988-0.675-5.958-2.203-8.784c-3.68-6.749-12.294-8.568-20.94-8.578
		c-6.751,0.003-13.612,1.133-18.417,2.132c-14.847,3.091-28.742,9.491-41.999,16.328
		C865.819,860.117,859.288,867.756,859.288,877.307z"/>
	<path style="fill:#D45556;" d="M1224.423,921.708c1.104-2.86,1.633-6.084,1.633-9.355c-0.005-6.267-1.947-12.722-5.741-17.103
		c-3.454-3.975-8.039-5.453-12.629-6.552c-4.595-1.099-9.232-1.853-12.989-4.182c-6.851-4.211-11.566-13.001-12.631-22.148
		c-0.152-1.307-0.229-2.621-0.228-3.93c0-1.052,0.047-2.099,0.152-3.132c0.934-9.556,5.863-17.995,12.533-23.224
		c2.223-1.743,4.64-3.13,7.166-4.082c3.198-1.206,6.531-1.777,9.901-1.777c5.468,0,11.025,1.509,16.15,4.233
		c1.708,0.908,3.369,1.951,4.963,3.118c9.326,6.821,16.48,17.6,21.169,29.501c3.145,7.9,5.819,17.354,12.775,21.426
		c1.942,1.125,4.014,1.641,6.086,1.638c0.754-0.002,1.508-0.07,2.253-0.199c5.223-0.906,10.135-4.808,13.175-9.928
		c1.413-2.393,2.622-4.985,3.642-7.73c3.059-8.236,4.408-17.852,4.412-27.614c-0.005-14.489-2.983-29.305-7.892-40.436
		c-12.183-27.552-36.608-47.379-62.493-49.38c-1.518-0.118-3.01-0.176-4.485-0.176c-25.974,0.003-46.521,17.648-58.411,42.29
		c-7.421,15.352-11.514,33.447-11.514,51.801c0,1.97,0.042,3.943,0.141,5.919l0,0c1.199,24.785,9.776,49.184,23.865,67.844
		c6.181,8.188,13.848,15.617,23.032,17.734c1.528,0.348,3.078,0.518,4.626,0.518c1.11,0,2.218-0.087,3.316-0.259
		C1214.081,935.322,1221.217,930.008,1224.423,921.708z"/>
	<path style="fill:#1F0A0A;" d="M867.034,563.581c1.874,1.222,4.061,1.508,6.186,1.508c0.816,0,1.633-0.042,2.418-0.097
		c9.829-0.667,19.584-2.402,29.302-3.475c4.841-0.536,9.672-0.908,14.497-0.908c2.721,0,5.438,0.118,8.154,0.393
		c18.406,1.853,35.341,10.726,52.047,19.086c3.192,1.591,6.647,3.276,10.394,3.284l0.806-0.029c2.768-0.185,4.773-0.981,6.086-2.316
		c1.313-1.334,1.842-3.143,1.837-5.121c-0.004-1.192-0.189-2.466-0.516-3.793c-0.979-3.979-3.229-8.426-5.687-12.541
		c-2.461-4.106-5.143-7.852-7.02-10.337c-0.627-0.828-1.164-1.516-1.573-2.03c-10.058-12.634-23.305-22.897-38.686-28.224
		c-7.421-2.57-15.313-3.844-23.2-3.844c-18.767,0-37.513,7.224-49.666,21.496c-3.344,3.959-9.023,12.633-9.059,19.662
		C863.339,559.174,864.386,561.867,867.034,563.581z"/>
	<path style="fill:#EC635C;" d="M994.003,994.605c0,6.39,0.659,12.875,2.041,19.375c0.58,2.736,1.273,5.418,2.077,8.043
		c12.04,39.369,48.526,65.752,88.866,65.752c6.385,0,12.869-0.662,19.374-2.039c35.566-7.533,62.051-34.457,70.733-67.368
		c2.003-7.595,3.059-15.509,3.059-23.577c0-6.39-0.659-12.874-2.036-19.372c-0.579-2.736-1.274-5.419-2.077-8.044
		c-12.048-39.37-48.53-65.752-88.87-65.752c-6.39,0-12.88,0.66-19.374,2.039C1024.017,912.934,994.003,951.575,994.003,994.605z"/>
	<path style="fill:#F3956E;" d="M631.314,784.822c2.13,0.925,4.196,1.733,6.18,2.414c7.803,2.677,15.25,3.878,22.378,3.878
		c4.009-0.003,7.912-0.383,11.721-1.091c26.655-4.955,48.624-25.955,68.938-45.876c21.63-21.227,40.983-44.728,57.961-69.815
		c13.473-19.927,29.333-42.115,31.275-66.952c0.131-1.656,0.198-3.324,0.199-5.003c0-2.612-0.162-5.252-0.502-7.919
		c-1.132-8.787-4.488-17.442-9.842-24.47c-3.213-4.217-7.144-7.848-11.747-10.571c-5.647-3.345-11.393-4.682-17.098-4.679
		c-9.444,0.008-18.76,3.621-27.618,7.744c-2.953,1.375-5.853,2.807-8.691,4.18c-55.156,26.722-110.316,53.442-165.472,80.164
		c-7.756,3.76-15.727,7.641-21.986,13.78c-10.09,9.904-14.35,20.981-14.345,32.293c0.016,20.162,13.366,40.986,30.59,58.17
		C598.334,766.104,616.402,778.345,631.314,784.822z"/>
	<path style="fill:#F3956E;" d="M668.596,970.167c1.654-0.003,3.716-0.503,6.348-1.583c0.806-0.33,1.591-0.689,2.371-1.07
		c12.383-6.121,22.41-18.987,27.272-31.349l-0.623-0.246l0.623,0.244c1.141-2.905,2.083-6.001,2.083-9.211v-0.392
		c-0.071-2.593-0.96-5.328-2.396-7.757c-0.479-0.81-1.018-1.585-1.608-2.31c-2.36-2.889-5.563-5.001-9.059-5.008
		c-2.345-0.005-4.763,0.984-6.956,3.213c-1.036,1.052-1.774,2.287-2.485,3.462c-4.559,7.549-7.814,14.714-11.346,22.527
		c-1.842,4.132-8.954,16.907-8.991,24.213c0,1.465,0.288,2.773,1.078,3.757C665.697,969.646,666.973,970.177,668.596,970.167z"/>
	<path style="fill:#EE7562;" d="M2164.255,1323.633c-2.548-4.694-6.96-7.696-9.368-11.798c-2.193-3.669-3.077-8.628-5.181-12.885
		c-6.735-13.547-13.833-27.432-25.063-37.802c-23.022-21.224-57.034-22.81-86.452-32.141c-14.685-4.65-28.69-11.441-41.428-20.094
		c-8.688-5.902-17.08-12.386-25.973-18.004c-0.097-0.062-0.191-0.129-0.288-0.19c-7.593-4.771-15.559-8.905-24.461-11.367
		c-7.651-2.115-15.606-3.188-23.556-3.188c-12.016,0-24.027,2.452-34.976,7.477c-27.596,12.675-47.211,41.095-49.273,71.397
		c-0.089,1.301-0.141,2.614-0.141,3.93c0,1.604,0.102,3.212,0.3,4.81c-14.178,10.966-26.205,25.182-37.039,39.527
		c-4.969,6.578-9.782,13.405-14.413,20.379c-0.296,0.444-0.607,0.874-0.9,1.319c-13.117,19.915-24.384,41.3-31.564,63.53
		c-1.094-0.818-2.179-1.648-3.291-2.463c-42.093-30.919-89.126-61.347-141.566-61.357h-0.502
		c-40.973,0.157-80.386,19.745-109.437,48.546c-29.051,28.8-48.415,66.162-60.955,105.023c-5.746,17.82-10.128,36.589-11.133,55.284
		c-0.144,2.67-0.218,5.34-0.218,8.005c0,12.422,1.622,24.749,5.474,36.666c18.981,58.698,83.777,88.205,143.449,102.424
		c9.127,2.172,18.239,4.252,27.345,6.223c0.039,0.008,0.078,0.016,0.117,0.025c41.798,9.049,83.575,15.563,126.815,15.563
		c6.066,0,12.162-0.128,18.296-0.395c12.832-0.563,25.675-1.698,38.424-3.47c39.576-5.497,78.282-17.087,113.169-36.438
		c8.703-4.828,17.218-10.171,24.65-16.883c14.844-13.426,25.568-34.43,28.177-55.599c15.766-29.958,20.133-74.707,29.119-100.089
		c16.344-46.229,34.907-94.236,37.147-143.632c4.529,0.201,9.06,0.326,13.597,0.326c5.102,0,10.215-0.144,15.329-0.466
		c11.021-0.696,21.954-2.167,32.866-3.632c14.523-1.955,29.051-3.904,43.574-5.859c3.308-0.448,5.846-0.85,8.138-0.848
		c2.91,0.005,5.464,0.61,8.992,2.635c4.249,2.402,8.064,7.22,13.931,7.262l0.612-0.016c4.721-0.299,8.552-4.192,9.74-8.641
		c0.319-1.222,0.466-2.465,0.466-3.705C2166.799,1329.749,2165.784,1326.493,2164.255,1323.633z M1757.745,1391.977l0.696-0.214
		l0.482,0.545c4.176,28.245,15.36,55.548,32.055,78.86c7.573,10.572,16.538,20.256,26.696,28.331
		c8.122,6.453,17.014,11.88,26.57,15.913l0.361,0.366l-0.005,0.513l-0.366,0.359l-0.513-0.003
		c-10.038-4.252-21.201-5.359-31.521-10.548c-10.378-5.234-19.987-11.985-28.449-19.95c-17.742-16.695-25.832-35.368-30.909-58.604
		c-0.748-3.413-1.204-7.735-1.204-12.28C1751.649,1406.728,1753.218,1397.42,1757.745,1391.977z"/>
	<path style="fill:#D45556;" d="M1783.75,1486.148c8.463,7.965,18.071,14.717,28.449,19.95c10.32,5.189,21.483,6.296,31.521,10.548
		l0.513,0.003l0.366-0.359l0.005-0.513l-0.361-0.366c-9.556-4.033-18.448-9.46-26.57-15.913
		c-10.158-8.075-19.123-17.76-26.696-28.331c-16.695-23.313-27.878-50.615-32.055-78.86l-0.482-0.545l-0.696,0.214
		c-4.527,5.443-6.097,14.751-6.108,23.287c0,4.545,0.455,8.868,1.204,12.28C1757.918,1450.781,1766.009,1469.454,1783.75,1486.148z"
		/>
</g>
</svg>
